<svg width="550" height="559" viewBox="0 0 550 559" fill="none" xmlns="http://www.w3.org/2000/svg">
<path d="M544.806 295.636H539.687V294.698C539.684 292.138 538.732 289.683 537.042 287.873C535.351 286.063 533.06 285.044 530.669 285.04H527.202C524.809 285.04 522.514 286.058 520.821 287.868C519.128 289.679 518.175 292.136 518.172 294.698V295.636H513.065C512.382 295.634 511.706 295.777 511.075 296.056C510.444 296.335 509.871 296.744 509.389 297.261C508.906 297.778 508.524 298.392 508.263 299.068C508.003 299.743 507.87 300.467 507.871 301.198V326.538C507.871 328.013 508.418 329.428 509.392 330.471C510.366 331.514 511.687 332.1 513.065 332.1H544.806C546.183 332.097 547.502 331.51 548.475 330.467C549.449 329.425 549.997 328.012 550 326.538V301.198C550 299.723 549.453 298.308 548.479 297.265C547.505 296.222 546.184 295.636 544.806 295.636ZM520.639 294.698C520.643 292.836 521.336 291.052 522.566 289.737C523.796 288.421 525.464 287.683 527.202 287.683H530.669C532.406 287.683 534.072 288.422 535.301 289.737C536.529 291.053 537.219 292.838 537.219 294.698V295.636H520.639V294.698Z" fill="#263238"/>
<path d="M538.391 311.279H531.853V304.29H526.006V311.279H519.467V317.554H526.006V324.543H531.853V317.554H538.391V311.279Z" fill="white"/>
<path d="M534.691 144.628C533.674 144.628 532.667 144.413 531.728 143.996C530.788 143.579 529.935 142.967 529.217 142.197C528.498 141.426 527.929 140.511 527.541 139.505C527.153 138.498 526.954 137.42 526.956 136.331V113.977C526.954 112.888 527.153 111.809 527.541 110.803C527.929 109.796 528.498 108.881 529.217 108.111C529.935 107.34 530.788 106.729 531.728 106.312C532.667 105.895 533.674 105.68 534.691 105.68C535.707 105.68 536.714 105.895 537.653 106.312C538.593 106.729 539.446 107.34 540.164 108.111C540.883 108.881 541.452 109.796 541.84 110.803C542.228 111.809 542.427 112.888 542.425 113.977V136.291C542.432 137.383 542.237 138.466 541.851 139.477C541.465 140.488 540.896 141.408 540.177 142.183C539.459 142.958 538.604 143.572 537.662 143.992C536.72 144.412 535.71 144.628 534.691 144.628Z" fill="white" stroke="#263238" stroke-linecap="round" stroke-linejoin="round"/>
<path d="M534.691 144.628C533.674 144.628 532.667 144.413 531.728 143.996C530.788 143.579 529.935 142.967 529.217 142.197C528.498 141.426 527.929 140.511 527.541 139.505C527.153 138.498 526.954 137.42 526.956 136.331V125.167H542.425V136.331C542.427 137.42 542.228 138.498 541.84 139.505C541.452 140.511 540.883 141.426 540.164 142.197C539.446 142.967 538.593 143.579 537.653 143.996C536.714 144.413 535.707 144.628 534.691 144.628Z" fill="#263238" stroke="#263238" stroke-linecap="round" stroke-linejoin="round"/>
<path d="M495.781 111.704C495.145 110.854 494.673 109.877 494.39 108.83C494.108 107.783 494.022 106.686 494.136 105.603C494.251 104.52 494.564 103.473 495.058 102.52C495.552 101.567 496.217 100.728 497.015 100.052L513.262 86.0738C514.871 84.7042 516.922 84.074 518.964 84.3217C521.006 84.5694 522.873 85.6747 524.155 87.3949C525.433 89.1158 526.021 91.3097 525.79 93.4947C525.559 95.6796 524.527 97.6768 522.922 99.0476L506.662 113.012C505.868 113.692 504.956 114.198 503.979 114.501C503.002 114.803 501.979 114.896 500.969 114.775C499.958 114.653 498.98 114.32 498.089 113.793C497.199 113.266 496.415 112.556 495.781 111.704Z" fill="white" stroke="#263238" stroke-linecap="round" stroke-linejoin="round"/>
<path d="M495.781 111.704C495.145 110.854 494.673 109.877 494.39 108.83C494.108 107.783 494.022 106.686 494.136 105.603C494.251 104.52 494.564 103.473 495.058 102.52C495.552 101.567 496.217 100.728 497.015 100.052L505.145 93.0627L514.829 105.997L506.699 112.973C505.906 113.661 504.994 114.175 504.014 114.484C503.035 114.793 502.009 114.891 500.994 114.773C499.979 114.656 498.996 114.324 498.101 113.797C497.206 113.27 496.418 112.559 495.781 111.704Z" fill="#263238" stroke="#263238" stroke-linecap="round" stroke-linejoin="round"/>
<path d="M418.42 50.8781C417.455 50.8786 416.515 51.202 415.73 51.803L397.756 36.8606C398.637 35.1146 399.05 33.1418 398.95 31.1601C398.85 29.1783 398.241 27.2648 397.189 25.6308L408.168 10.596C409.097 10.9797 410.117 11.0348 411.077 10.7531C412.038 10.4715 412.889 9.86795 413.506 9.03086C414.123 8.19376 414.474 7.16709 414.507 6.10116C414.539 5.03523 414.253 3.98604 413.689 3.10719C413.124 2.22834 412.312 1.56601 411.371 1.21716C410.43 0.868306 409.41 0.851266 408.459 1.16853C407.508 1.4858 406.677 2.12071 406.088 2.98029C405.498 3.83988 405.181 4.879 405.183 5.9455C405.177 6.97335 405.475 7.97678 406.034 8.81242L395.351 23.4641C393.918 22.1722 392.178 21.3333 390.325 21.0416C388.472 20.7498 386.579 21.0168 384.86 21.8126C383.141 22.6083 381.663 23.9013 380.592 25.5465C379.52 27.1917 378.898 29.1241 378.795 31.1268H366.311C366.174 29.94 365.645 28.845 364.819 28.0408C363.992 27.2366 362.924 26.7767 361.808 26.7445C360.692 26.7123 359.602 27.1101 358.736 27.8655C357.871 28.621 357.287 29.6839 357.092 30.8611C356.896 32.0383 357.101 33.2517 357.67 34.2807C358.238 35.3096 359.133 36.0859 360.191 36.4683C361.249 36.8508 362.4 36.814 363.434 36.3648C364.469 35.9155 365.319 35.0836 365.83 34.0201H379.03C379.416 35.9411 380.284 37.7129 381.54 39.1451C382.796 40.5772 384.393 41.6155 386.159 42.1481C387.925 42.6807 389.794 42.6876 391.563 42.168C393.333 41.6484 394.936 40.6219 396.202 39.1991L414.077 54.0886C413.725 55.0817 413.678 56.1696 413.944 57.1933C414.209 58.217 414.774 59.1228 415.555 59.7784C416.335 60.434 417.291 60.8051 418.283 60.8374C419.275 60.8697 420.25 60.5615 421.067 59.9578C421.883 59.3542 422.498 58.4867 422.821 57.4822C423.145 56.4777 423.16 55.3888 422.864 54.3745C422.568 53.3603 421.978 52.4739 421.178 51.8449C420.378 51.2158 419.412 50.8771 418.42 50.8781Z" fill="#263238"/>
<path d="M53.2987 144.786C51.8045 144.783 50.3724 144.145 49.3158 143.014C48.2593 141.882 47.6643 140.349 47.661 138.748V88.5444H58.9365V138.748C58.9365 140.35 58.3425 141.885 57.2852 143.018C56.2279 144.15 54.794 144.786 53.2987 144.786Z" fill="white" stroke="#263238" stroke-linecap="round" stroke-linejoin="round"/>
<path d="M53.2987 144.786C51.8045 144.783 50.3724 144.145 49.3158 143.014C48.2593 141.882 47.6643 140.349 47.661 138.748V107.873H58.9365V138.748C58.9365 140.35 58.3425 141.885 57.2852 143.018C56.2279 144.15 54.794 144.786 53.2987 144.786Z" fill="#263238" stroke="#263238" stroke-linecap="round" stroke-linejoin="round"/>
<path d="M60.5526 85.6114H46.0573V90.0109H60.5526V85.6114Z" fill="white" stroke="#263238" stroke-linecap="round" stroke-linejoin="round"/>
<path d="M36.2128 144.786C34.7186 144.783 33.2865 144.145 32.2299 143.014C31.1734 141.882 30.5783 140.349 30.5751 138.748V88.5444H41.8506V138.748C41.8506 140.35 41.2566 141.885 40.1993 143.018C39.142 144.15 37.708 144.786 36.2128 144.786Z" fill="white" stroke="#263238" stroke-linecap="round" stroke-linejoin="round"/>
<path d="M36.2128 144.786C34.7186 144.783 33.2865 144.145 32.2299 143.014C31.1734 141.882 30.5783 140.349 30.5751 138.748V107.873H41.8506V138.748C41.8506 140.35 41.2566 141.885 40.1993 143.018C39.142 144.15 37.708 144.786 36.2128 144.786Z" fill="#263238" stroke="#263238" stroke-linecap="round" stroke-linejoin="round"/>
<path d="M43.4666 85.6114H28.9713V90.0109H43.4666V85.6114Z" fill="white" stroke="#263238" stroke-linecap="round" stroke-linejoin="round"/>
<path d="M198.868 36.1208L203.359 24.5738C203.435 24.3878 203.562 24.2305 203.722 24.1222C203.883 24.0139 204.07 23.9595 204.259 23.9661C204.45 23.9762 204.632 24.0489 204.782 24.1742C204.932 24.2995 205.043 24.4714 205.098 24.6663L210.539 43.876L214.684 29.7264C214.741 29.5273 214.855 29.3525 215.01 29.2268C215.165 29.1011 215.353 29.0309 215.547 29.0261C215.739 29.0317 215.926 29.0972 216.083 29.2146C216.241 29.3319 216.364 29.496 216.436 29.6867L218.742 36.7946H231.215C233.767 33.9378 235.251 30.1766 235.384 26.2253C235.408 22.5345 234.158 18.9645 231.873 16.2009C229.589 13.4372 226.432 11.6748 223.008 11.2521C219.584 10.8294 216.136 11.7763 213.324 13.9108C210.513 16.0453 208.536 19.217 207.775 22.8167C206.992 19.2422 205.008 16.1009 202.203 13.9902C199.398 11.8795 195.966 10.9467 192.56 11.3692C189.154 11.7916 186.012 13.5399 183.732 16.2815C181.451 19.0231 180.191 22.5668 180.191 26.2385C180.328 29.8978 181.61 33.4016 183.83 36.1868L198.868 36.1208Z" fill="#263238"/>
<path d="M218.089 38.7763C217.897 38.7771 217.709 38.7139 217.552 38.5956C217.395 38.4772 217.277 38.3095 217.213 38.1157L215.609 33.1746L211.402 47.5356C211.342 47.7378 211.224 47.9146 211.064 48.0404C210.905 48.1662 210.712 48.2346 210.514 48.2358C210.316 48.2351 210.123 48.1651 209.964 48.0363C209.806 47.9076 209.692 47.7271 209.638 47.5224L204.074 27.8767L200.374 37.4948C200.303 37.6745 200.185 37.828 200.034 37.9361C199.882 38.0442 199.704 38.1021 199.522 38.1025H185.323C188.37 41.7489 192.17 44.9725 195.007 47.9716C199.3 52.5164 203.507 57.2197 207.886 61.6059C213.499 55.6739 219.15 49.7155 224.713 43.7835C226.255 42.1321 227.933 40.4938 229.488 38.7763H218.089Z" fill="#263238"/>
<path d="M9.98385 334.073L16.0329 336.32L22.5782 316.112L16.5291 313.865L9.98385 334.073Z" fill="white" stroke="#263238" stroke-miterlimit="10"/>
<path d="M7.11602 337.281L16.4518 340.749L17.6849 336.942L8.34908 333.474L7.11602 337.281Z" fill="white" stroke="#263238" stroke-miterlimit="10"/>
<path d="M9.8589 319.065L24.8125 324.62L36.67 288.01L21.7164 282.456L9.8589 319.065Z" fill="white" stroke="#263238" stroke-miterlimit="10"/>
<path d="M17.1299 303.404L28.1673 307.504L34.7126 287.296L23.6752 283.196L17.1299 303.404Z" fill="#263238" stroke="#263238" stroke-miterlimit="10"/>
<path d="M15.1775 318.053L21.2266 320.3L27.7719 300.092L21.7228 297.845L15.1775 318.053Z" fill="#263238" stroke="#263238" stroke-miterlimit="10"/>
<path d="M8.80312 318.681L25.8896 325.028L27.3733 320.448L10.2868 314.1L8.80312 318.681Z" fill="white" stroke="#263238" stroke-miterlimit="10"/>
<path d="M25.3626 281.693L34.2672 285L36.2441 278.897L27.3396 275.589L25.3626 281.693Z" fill="white" stroke="#263238" stroke-miterlimit="10"/>
<path d="M20.2869 283.213L37.3734 289.56L38.8571 284.979L21.7706 278.632L20.2869 283.213Z" fill="white" stroke="#263238" stroke-miterlimit="10"/>
<path d="M31.8827 276.413L39.0378 254.297" stroke="#263238" stroke-miterlimit="10"/>
<path d="M429.708 551.28C465.361 551.28 494.264 544.301 494.264 535.691C494.264 527.081 465.361 520.101 429.708 520.101C394.054 520.101 365.151 527.081 365.151 535.691C365.151 544.301 394.054 551.28 429.708 551.28Z" fill="#263238" stroke="#263238" stroke-linecap="round" stroke-linejoin="round"/>
<path d="M379.93 183.311C379.93 183.311 371.196 189.032 371.295 191.542C371.393 194.052 368.038 239.83 367.655 245.551C367.273 251.272 362.19 263.083 361.796 268.447C361.401 273.811 362.659 279.188 364.127 281.658C365.595 284.129 370.986 292.029 370.986 292.029L385.482 268.05C385.837 262.814 385.911 257.561 385.704 252.315C385.482 240.887 379.93 183.311 379.93 183.311Z" fill="white" stroke="#263238" stroke-linecap="round" stroke-linejoin="round"/>
<path d="M435.703 69.8764C435.703 69.8764 420.283 68.8195 411.499 80.2739C402.715 91.7284 404.603 109.247 404.541 114.624C404.48 120.001 389.565 135.763 391.218 142.183C392.871 148.604 397.263 149.331 395.856 154.695C394.45 160.059 385.272 163.282 386.604 170.086C387.936 176.89 392.772 186.535 392.772 186.535L481.595 187.182C481.595 187.182 484.765 177.168 481.385 169.65C478.005 162.133 473.206 159.649 473.983 156.069C474.76 152.489 479.053 143.901 477.4 137.467C475.747 131.033 469.998 129.249 469.394 117.795C468.789 106.34 467.21 87.4082 458.723 78.1601C450.235 68.912 435.703 69.8764 435.703 69.8764Z" fill="#263238" stroke="#263238" stroke-linecap="round" stroke-linejoin="round"/>
<path d="M408.39 511.289C405.662 516.918 402.352 522.201 398.521 527.037C392.846 533.841 387.344 537.422 387.529 541.002C387.714 544.582 400.1 545.282 406.651 542.772C413.201 540.262 417.963 535.255 419.283 534.845C420.603 534.436 424.292 534.845 424.378 529.825C424.465 524.804 423.749 510.51 423.749 510.51L408.39 511.289Z" fill="white" stroke="#263238" stroke-linecap="round" stroke-linejoin="round"/>
<path d="M406.626 542.772C413.189 540.262 417.939 535.255 419.259 534.845C420.579 534.436 424.267 534.845 424.354 529.825C424.354 527.183 424.218 521.898 424.045 517.578C423.074 519.527 421.638 521.166 419.882 522.326C418.127 523.487 416.115 524.128 414.053 524.184C414.053 524.184 413.929 521.673 410.352 517.393C408.045 514.592 405.713 516.798 404.356 518.714L403.258 520.484L403.172 520.656C401.748 522.906 400.19 525.055 398.509 527.09C392.834 533.894 387.332 537.474 387.517 541.055C387.702 544.635 400.075 545.282 406.626 542.772Z" fill="white" stroke="#263238" stroke-linecap="round" stroke-linejoin="round"/>
<path d="M454.097 511.263C457.412 516.912 461.256 522.184 465.57 526.998C471.923 533.788 477.783 537.355 477.906 540.936C478.029 544.516 465.767 545.23 458.957 542.733C452.148 540.236 446.892 535.228 445.548 534.872C444.203 534.515 440.527 534.872 439.947 529.878C439.367 524.884 438.639 510.562 438.639 510.562L454.097 511.263Z" fill="white" stroke="#263238" stroke-linecap="round" stroke-linejoin="round"/>
<path d="M459.007 542.733C452.209 540.236 446.942 535.228 445.597 534.872C444.252 534.515 440.576 534.872 439.996 529.878C439.688 527.235 439.342 521.951 439.083 517.617C440.224 519.555 441.791 521.163 443.647 522.301C445.504 523.438 447.592 524.071 449.73 524.144C449.73 524.144 449.606 521.634 452.727 517.34C454.763 514.552 457.316 516.745 458.896 518.661C459.303 519.242 459.722 519.824 460.129 520.431L460.24 520.603C461.898 522.849 463.669 524.997 465.545 527.037C471.898 533.828 477.758 537.395 477.881 540.975C478.005 544.556 465.816 545.23 459.007 542.733Z" fill="white" stroke="#263238" stroke-linecap="round" stroke-linejoin="round"/>
<path d="M381.559 322.456C381.559 322.456 383.619 396.85 386.357 411.515C389.096 426.18 401.322 510.232 401.322 510.232C405.058 511.925 409.082 512.771 413.14 512.716H426.5L427.734 450.119L428.19 359.263L434.889 513.059C434.889 513.059 453.295 513.76 455.281 513.403C457.267 513.046 458.92 512.689 458.92 512.689L470.751 415.386L477.524 350.649L477.894 324.9C477.894 324.9 421.343 322.799 404.911 321.372C388.479 319.945 381.719 319.589 381.719 319.589L381.559 322.456Z" fill="#92E3A9" stroke="#263238" stroke-linecap="round" stroke-linejoin="round"/>
<path d="M457.921 453.805C457.773 455.047 457.625 456.197 457.452 457.254" stroke="#263238" stroke-linecap="round" stroke-linejoin="round"/>
<path d="M459.438 364.244C459.438 364.244 460.586 417.249 458.575 446.024" stroke="#263238" stroke-linecap="round" stroke-linejoin="round"/>
<path d="M398.805 359.99C398.805 359.99 400.224 395.053 401.63 402.914" stroke="#263238" stroke-linecap="round" stroke-linejoin="round"/>
<path d="M451.518 337.649V364.416C454.721 365.339 457.995 365.945 461.301 366.226C466.371 366.582 475.833 366.226 475.833 366.226L476.512 356.092L451.518 337.649Z" fill="#263238" stroke="#263238" stroke-linecap="round" stroke-linejoin="round"/>
<path d="M382.607 358.259C382.607 358.259 395.449 362.606 400.853 362.962C406.256 363.319 411.314 364.046 411.314 364.046L410.648 356.819L381.929 353.926L382.607 358.259Z" fill="#263238" stroke="#263238" stroke-linecap="round" stroke-linejoin="round"/>
<path d="M421.59 155.025L411.511 167.193L383.557 189.032L389.516 321.399C389.516 321.399 411.795 327.82 430.917 329.603C450.038 331.387 474.624 326.697 474.624 326.697L471.01 187.975C471.01 187.975 460.129 170.8 454.553 166.163C448.977 161.525 446.423 157.231 439.034 156.518C431.644 155.805 421.59 155.025 421.59 155.025Z" fill="#92E3A9" stroke="#263238" stroke-linecap="round" stroke-linejoin="round"/>
<path d="M409.895 161.538L379.93 183.377L384.63 263.849L383.039 271.935L370.443 287.471L375.81 314.767L373.416 353.278C373.416 353.278 385.321 357.572 393.389 358.629C399.396 359.318 405.433 359.676 411.474 359.699L412.511 307.117C412.511 307.117 416.495 219.828 416.964 215.957C417.433 212.086 421.59 155.184 421.59 155.184L409.895 161.538Z" fill="white" stroke="#263238" stroke-linecap="round" stroke-linejoin="round"/>
<path d="M410.376 164.828L395.869 203.789L411.524 210.752L396.745 213.632L409.834 268.552" stroke="#263238" stroke-linecap="round" stroke-linejoin="round"/>
<path d="M419.074 144.654C419.074 144.654 424.28 181.845 428.375 190.432C432.471 199.02 433.631 201.873 433.631 201.873C433.631 201.873 442.537 172.887 444.326 168.593C446.115 164.3 448.027 148.921 448.027 148.921C448.027 148.921 430.275 155.012 419.074 144.654Z" fill="white" stroke="#263238" stroke-linecap="round" stroke-linejoin="round"/>
<path d="M419.074 144.654C419.074 144.654 419.542 148.036 420.307 152.991C422.91 155.118 429.806 160.376 434.901 160.653C438.787 160.865 443.722 158.17 447.003 156.016C447.595 152.119 448.003 148.921 448.003 148.921C448.003 148.921 430.275 155.012 419.074 144.654Z" fill="#263238" stroke="#263238" stroke-linecap="round" stroke-linejoin="round"/>
<path d="M412.005 118.944C412.005 118.944 408.452 113.528 406.059 118.944C403.665 124.361 409.76 132.38 411.462 133.477C416.298 136.555 415.015 130.835 415.015 130.835L412.005 118.944Z" fill="white" stroke="#263238" stroke-linecap="round" stroke-linejoin="round"/>
<path d="M456.132 121.283C456.132 121.283 459.13 115.681 462.066 120.966C465.002 126.25 459.71 134.56 458.131 135.736C453.616 139.079 454.331 133.345 454.331 133.345L456.132 121.283Z" fill="white" stroke="#263238" stroke-linecap="round" stroke-linejoin="round"/>
<path d="M411.166 114.162C411.166 114.162 424.045 110.938 430.534 106.829C434.509 104.258 437.975 100.879 440.736 96.8809C440.736 96.8809 446.312 108.164 451.222 112.735C456.132 117.306 457.156 117.57 457.156 117.57C457.156 117.57 454.8 137.322 452.135 144.192C449.47 151.062 440.773 157.747 432.656 155.818C428.042 154.734 420.048 151.167 417.729 145.156C415.41 139.145 411.166 114.162 411.166 114.162Z" fill="white" stroke="#263238" stroke-linecap="round" stroke-linejoin="round"/>
<path d="M444.03 129.342C440.033 129.448 426.648 129.474 419.74 125.008C416.971 123.282 414.378 121.25 412.005 118.944C412.252 120.265 412.548 121.917 412.868 123.634L414.373 124.81L418.148 140.083L416.384 140.492C416.756 142.054 417.205 143.593 417.729 145.103C420.048 151.115 428.042 154.682 432.656 155.765C440.761 157.681 449.434 151.035 452.123 144.178C451.488 142.846 451.301 141.321 451.592 139.858C452.37 135.538 453.332 127.968 453.332 127.968L456.083 125.325C456.231 124.361 456.354 123.436 456.478 122.591C453.147 125.061 446.905 129.263 444.03 129.342Z" fill="#92E3A9" stroke="#263238" stroke-linecap="round" stroke-linejoin="round"/>
<path d="M429.337 122.961C429.337 122.961 425.032 117.359 419.382 117.874" stroke="#263238" stroke-linecap="round" stroke-linejoin="round"/>
<path d="M440.428 124.07C441.802 122.524 443.508 121.361 445.399 120.684C447.289 120.007 449.305 119.836 451.272 120.186" stroke="#263238" stroke-linecap="round" stroke-linejoin="round"/>
<path d="M416.902 115.073C416.902 115.073 423.071 112.431 428.536 113.673" stroke="#263238" stroke-linecap="round" stroke-linejoin="round"/>
<path d="M440.934 115.113C442.559 114.224 444.4 113.891 446.207 114.161C448.015 114.43 449.701 115.288 451.037 116.619" stroke="#263238" stroke-linecap="round" stroke-linejoin="round"/>
<path d="M425.192 121.124C425.22 121.327 425.211 121.534 425.164 121.733C425.117 121.932 425.034 122.119 424.919 122.284C424.804 122.448 424.66 122.587 424.496 122.692C424.331 122.796 424.148 122.865 423.959 122.895C423.573 122.848 423.218 122.646 422.966 122.33C422.714 122.013 422.584 121.606 422.602 121.19C422.572 120.987 422.581 120.779 422.627 120.58C422.673 120.38 422.756 120.192 422.871 120.027C422.986 119.862 423.13 119.724 423.296 119.62C423.462 119.515 423.645 119.447 423.835 119.42C424.22 119.469 424.573 119.672 424.825 119.988C425.076 120.304 425.208 120.709 425.192 121.124Z" fill="#263238"/>
<path d="M447.534 122.842C447.567 123.045 447.561 123.254 447.516 123.455C447.471 123.657 447.389 123.846 447.273 124.012C447.158 124.177 447.012 124.316 446.844 124.419C446.677 124.523 446.492 124.588 446.3 124.612C445.915 124.569 445.56 124.369 445.308 124.055C445.056 123.741 444.925 123.335 444.943 122.921C444.91 122.717 444.916 122.508 444.961 122.307C445.005 122.106 445.088 121.917 445.204 121.751C445.319 121.585 445.465 121.447 445.632 121.343C445.8 121.24 445.985 121.175 446.177 121.151C446.562 121.194 446.917 121.393 447.169 121.708C447.421 122.022 447.552 122.428 447.534 122.842Z" fill="#263238"/>
<path d="M480.756 175.728C480.756 175.728 487.948 179.295 490.625 184.976C493.302 190.657 514.706 252.21 514.607 256.86C514.508 261.511 507.427 266.874 500.79 267.601C494.153 268.328 484.481 255.446 483.038 253.306C481.595 251.166 481.335 226.117 481.335 226.117L480.756 175.728Z" fill="white" stroke="#263238" stroke-linecap="round" stroke-linejoin="round"/>
<path d="M446.855 159.293L450.359 282.345L451.592 359.963C458.31 361.732 465.191 362.685 472.108 362.804C477.877 362.933 483.613 361.838 488.984 359.58C488.984 359.58 486.887 311.292 486.517 303.418C486.147 295.544 483.704 280.522 483.704 280.522L480.793 175.728C480.793 175.728 453.69 162.146 446.855 159.293Z" fill="white" stroke="#263238" stroke-linecap="round" stroke-linejoin="round"/>
<path d="M454.553 166.083L466.976 209.483L455.651 212.773L466.667 218.494L452.925 265.249" fill="white"/>
<path d="M454.553 166.083L466.976 209.483L455.651 212.773L466.667 218.494L452.925 265.249" stroke="#263238" stroke-linecap="round" stroke-linejoin="round"/>
<path d="M463.213 205.784L447.805 284.842C447.805 284.842 458.34 288.409 466.038 288.806C473.736 289.202 489.774 289.149 489.774 289.149L505.811 215.455C505.811 215.455 474.242 212.218 463.213 205.784Z" fill="#263238" stroke="#263238" stroke-linecap="round" stroke-linejoin="round"/>
<path d="M468.58 279.465L469.085 254.759L481.311 257.521C481.311 257.521 473.23 276.585 468.58 279.465Z" fill="white" stroke="#263238" stroke-linecap="round" stroke-linejoin="round"/>
<path d="M477.943 245.828C477.943 245.828 474.686 240.834 473.638 239.751C472.589 238.668 467.408 235.471 466.408 235.471C465.409 235.471 460.043 235.114 459.007 235.114C457.97 235.114 456.798 237.624 457.859 238.694C458.92 239.764 462.609 240.121 462.609 240.121L465.138 244.084L453.727 243.014C453.727 243.014 451.827 245.168 452.259 246.978C452.582 248.204 452.994 249.401 453.492 250.558C453.449 253.185 453.577 255.811 453.875 258.419C454.319 260.573 456.342 261.286 459.118 263.07C461.893 264.853 471.183 263.783 471.183 263.783H475.476L477.943 245.828Z" fill="white" stroke="#263238" stroke-linecap="round" stroke-linejoin="round"/>
<path d="M505.762 248.312L476.154 244.045C476.154 244.045 473.847 264.444 471.516 271.234C469.184 278.025 468.58 279.465 468.58 279.465C468.58 279.465 499.606 278.725 506.921 278.012C514.237 277.298 518.345 272.635 518.024 266.201C517.703 259.767 514.039 253.319 514.039 253.319" fill="white"/>
<path d="M505.762 248.312L476.154 244.045C476.154 244.045 473.847 264.444 471.516 271.234C469.184 278.025 468.58 279.465 468.58 279.465C468.58 279.465 499.606 278.725 506.921 278.012C514.237 277.298 518.345 272.635 518.024 266.201C517.703 259.767 514.039 253.319 514.039 253.319" stroke="#263238" stroke-linecap="round" stroke-linejoin="round"/>
<path d="M382.299 270.587C382.299 270.587 389.207 275.224 390.934 276.664C392.661 278.104 392.809 287.392 393.907 289.176C395.005 290.959 393.71 292.043 391.711 292.043C389.713 292.043 386.69 285.252 386.69 285.252L386.567 282.742L372.454 287.762L368.753 280.971C368.753 280.971 372.948 270.587 382.299 270.587Z" fill="white" stroke="#263238" stroke-linecap="round" stroke-linejoin="round"/>
<path d="M279.487 551.281C315.141 551.281 344.043 544.301 344.043 535.691C344.043 527.081 315.141 520.101 279.487 520.101C243.833 520.101 214.931 527.081 214.931 535.691C214.931 544.301 243.833 551.281 279.487 551.281Z" fill="#263238" stroke="#263238" stroke-linecap="round" stroke-linejoin="round"/>
<path d="M329.906 165.224C329.906 165.224 338.369 210.712 339.874 219.128C341.379 227.544 344.142 247.546 347.276 256.318C350.409 265.091 349.385 276.321 347.818 279.478C346.247 282.222 344.442 284.805 342.427 287.194L331.917 272.516C331.917 272.516 325.662 200.592 325.428 190.406C325.193 180.22 329.906 165.224 329.906 165.224Z" fill="white" stroke="#263238" stroke-linecap="round" stroke-linejoin="round"/>
<path d="M335.482 270.719C335.482 270.719 342.144 275.171 343.316 277.061C344.488 278.95 345.326 281.354 344.414 283.402C343.501 285.45 338.529 291.633 337.271 292.835C336.012 294.038 334.951 289.242 334.803 285.12C334.655 280.998 335.482 270.719 335.482 270.719Z" fill="white" stroke="#263238" stroke-linecap="round" stroke-linejoin="round"/>
<path d="M299.657 520.154C299.657 520.154 320.543 531.027 321.863 533.141C323.183 535.255 318.421 538.069 305.973 538.069C293.526 538.069 293.156 536.312 288.209 534.911C283.262 533.511 273.405 534.555 272.073 531.397C270.74 528.239 273.06 517.366 273.06 517.366L299.657 520.154Z" fill="white" stroke="#263238" stroke-linecap="round" stroke-linejoin="round"/>
<path d="M271.925 525.769C271.925 525.769 289.196 536.999 287.678 540.856C286.161 544.714 273.677 544.714 267.101 543.657C260.526 542.6 246.549 533.088 245.809 529.627C245.068 526.165 246.919 520.854 257.047 519.81C267.175 518.767 271.925 525.769 271.925 525.769Z" fill="white" stroke="#263238" stroke-linecap="round" stroke-linejoin="round"/>
<path d="M324.355 342.273C324.355 342.273 314.485 423.67 312.771 435.6C311.056 447.53 305.615 466.475 302.679 480.863C301.015 489.324 299.78 497.876 298.978 506.48C298.679 508.927 298.733 511.409 299.139 513.839C299.558 517.353 299.62 520.154 299.62 520.154C295.227 521.334 290.757 522.156 286.247 522.611C280.684 522.968 273.146 522.968 273.146 522.968L270.679 500.165C270.679 500.165 272.517 466.475 273.602 456.659C274.688 446.843 275.848 369.647 275.798 367.534C275.749 365.42 275.317 346.831 275.317 346.831L308.934 342.973C308.934 342.973 313.523 328.943 320.419 329.643C327.315 330.343 324.355 342.273 324.355 342.273Z" fill="white" stroke="#263238" stroke-linecap="round" stroke-linejoin="round"/>
<path d="M320.469 329.643C313.573 328.943 308.983 342.973 308.983 342.973L275.33 346.831C275.33 346.831 275.441 351.772 275.552 356.845C279.142 357.189 282.46 357.387 285.297 357.387C296.08 357.368 306.853 356.72 317.569 355.445L319.013 339.274L321.27 355.749L322.825 355.207C323.787 347.36 324.404 342.247 324.404 342.247C324.404 342.247 327.365 330.343 320.469 329.643Z" fill="#263238" stroke="#263238" stroke-linecap="round" stroke-linejoin="round"/>
<path d="M240.22 344.73C240.22 344.73 240.22 345.232 240.294 346.144C240.751 355.736 243.465 411.317 244.291 421.569C245.216 432.799 240.59 445.072 240.825 455.245C241.059 465.418 243.292 520.511 243.292 520.511L245.759 529.627C245.759 529.627 251.557 525.425 257.121 525.425C262.685 525.425 271.925 525.769 271.925 525.769C271.925 525.769 272.406 518.397 272.357 515.953C272.307 513.509 272.097 504.723 272.097 504.723C272.097 504.723 281.51 458.76 282.078 454.902C282.645 451.044 289.948 384.378 289.899 382.238C289.85 380.098 291.441 350.306 291.441 350.306L240.22 344.73Z" fill="white" stroke="#263238" stroke-linecap="round" stroke-linejoin="round"/>
<path d="M291.096 357.321C291.305 353.252 291.453 350.345 291.453 350.345L240.22 344.73C240.22 344.73 240.22 345.232 240.294 346.144C240.294 347.307 240.43 349.143 240.553 351.429C252.532 353.728 273.319 357.347 285.297 357.347C287.271 357.387 289.196 357.361 291.096 357.321Z" fill="#263238" stroke="#263238" stroke-linecap="round" stroke-linejoin="round"/>
<path d="M277.97 129.302C277.97 129.302 272.554 130.28 270.494 132.869C268.429 135.388 266.572 138.093 264.942 140.955C264.659 141.932 232.806 162.635 232.806 162.635L235.101 261.352C235.101 261.352 236.05 276.559 234.36 281.738C231.505 291.92 230.12 302.511 230.252 313.141C230.548 325.759 231.313 346.17 231.313 346.17C231.313 346.17 267.767 353.939 285.297 353.939C296.08 353.911 306.854 353.254 317.569 351.97L319.013 335.786L321.209 352.301L328.697 349.658L334.865 300.775C334.865 300.775 339.158 290.418 339.109 288.145C339.06 285.873 340.194 282.966 338.948 281.024C337.702 279.082 335.482 275.198 335.482 275.198C335.482 275.198 329.906 168.144 329.906 165.224C329.906 162.305 313.412 145.169 312.191 144.522C310.97 143.875 303.444 131.892 293.686 128.668C283.928 125.444 277.97 129.302 277.97 129.302Z" fill="white" stroke="#263238" stroke-linecap="round" stroke-linejoin="round"/>
<path d="M268.039 144.192L264.387 179.744L279.388 187.209L275.638 199.271L313.153 269.874" stroke="#263238" stroke-linecap="round" stroke-linejoin="round"/>
<path d="M309.946 148.182L321.196 176.309L316.373 183.192L324.416 195.241L321.196 272.74" stroke="#263238" stroke-linecap="round" stroke-linejoin="round"/>
<path d="M276.576 134.164C276.849 141.1 278.024 147.961 280.067 154.55C283.311 164.26 304.814 231.256 304.814 231.256L318.717 283.68C318.717 283.68 316.879 230.278 316.829 228.019C316.78 225.76 306.294 151.63 306.294 151.63C306.294 151.63 304.505 139.66 301.68 135.128C298.855 130.597 279.919 122.181 276.576 134.164Z" fill="#92E3A9" stroke="#263238" stroke-linecap="round" stroke-linejoin="round"/>
<path d="M275.243 128.985C275.243 128.985 266.497 129.95 268.039 144.192C269.581 158.434 271.616 168.144 271.616 168.144" stroke="#263238" stroke-width="2" stroke-linecap="round" stroke-linejoin="round"/>
<path d="M270.543 186.918C270.543 186.918 274.244 203.419 276.773 207.951C279.302 212.482 286.951 217.014 292.391 217.014" stroke="#263238" stroke-linecap="round" stroke-linejoin="round"/>
<path d="M282.238 183.034C282.238 183.034 286.309 202.124 286.987 205.692C287.666 209.259 285.421 216.036 281.646 222.867" stroke="#263238" stroke-linecap="round" stroke-linejoin="round"/>
<path d="M280.56 225.126C280.172 224.897 279.884 224.513 279.759 224.058C279.634 223.602 279.683 223.112 279.894 222.695L280.326 221.849C280.432 221.647 280.575 221.47 280.746 221.328C280.917 221.185 281.112 221.081 281.322 221.021C281.531 220.961 281.749 220.946 281.963 220.977C282.178 221.008 282.385 221.084 282.571 221.202C282.959 221.431 283.248 221.814 283.375 222.269C283.502 222.724 283.457 223.213 283.25 223.633L282.818 224.465C282.711 224.669 282.568 224.848 282.397 224.991C282.225 225.135 282.028 225.241 281.818 225.302C281.608 225.364 281.389 225.38 281.173 225.35C280.957 225.319 280.749 225.243 280.56 225.126Z" fill="#263238"/>
<path d="M294.414 217.371C294.414 217.604 294.37 217.834 294.285 218.049C294.2 218.263 294.076 218.457 293.919 218.618C293.762 218.78 293.577 218.906 293.374 218.989C293.17 219.072 292.954 219.11 292.736 219.101H291.836C291.392 219.091 290.969 218.894 290.66 218.553C290.351 218.212 290.179 217.754 290.183 217.278C290.181 217.046 290.223 216.816 290.307 216.601C290.39 216.387 290.514 216.193 290.669 216.031C290.825 215.869 291.01 215.743 291.212 215.66C291.415 215.577 291.631 215.539 291.848 215.547H292.749C293.193 215.561 293.614 215.759 293.925 216.099C294.236 216.439 294.411 216.895 294.414 217.371Z" fill="#263238"/>
<path d="M270.568 188.213L268.495 174.142C268.264 172.692 268.557 171.201 269.316 169.974C270.074 168.747 271.241 167.875 272.579 167.537V167.537C274.02 167.186 275.532 167.446 276.797 168.264C278.062 169.082 278.982 170.394 279.364 171.923L282.904 185.927" stroke="#263238" stroke-width="2" stroke-linecap="round" stroke-linejoin="round"/>
<path d="M319.332 197.722C322.301 197.403 324.431 194.173 324.088 190.507C323.745 186.84 321.06 184.126 318.09 184.445C315.121 184.763 312.992 187.994 313.335 191.66C313.678 195.327 316.363 198.041 319.332 197.722Z" fill="white" stroke="#263238" stroke-linecap="round" stroke-linejoin="round"/>
<path d="M304.16 134.917C304.16 134.917 316.04 152.819 319.827 189.309" stroke="#263238" stroke-width="2" stroke-linecap="round" stroke-linejoin="round"/>
<path d="M320.143 193.534C321.764 193.372 322.936 191.598 322.76 189.571C322.584 187.544 321.127 186.032 319.505 186.193C317.884 186.355 316.712 188.129 316.888 190.156C317.064 192.183 318.521 193.695 320.143 193.534Z" fill="white" stroke="#263238" stroke-linecap="round" stroke-linejoin="round"/>
<path d="M337.505 273.507C336.776 275.925 336.179 278.386 335.716 280.879C335.716 281.936 335.482 285.093 333.175 284.38C330.868 283.666 331.559 271.049 331.855 269.649C332.151 268.249 337.764 272.78 337.764 272.78" fill="white"/>
<path d="M337.505 273.507C336.776 275.925 336.179 278.386 335.716 280.879C335.716 281.936 335.482 285.093 333.175 284.38C330.868 283.666 331.559 271.049 331.855 269.649C332.151 268.249 337.764 272.78 337.764 272.78" stroke="#263238" stroke-linecap="round" stroke-linejoin="round"/>
<path d="M262.623 262.33C264.675 263.54 266.968 264.205 269.309 264.272C272.936 264.272 279.561 262.951 281.991 263.624C284.422 264.298 290.627 272.674 290.627 272.674C290.627 272.674 292.477 274.616 291.601 275.594C290.725 276.572 288.937 278.236 287.703 277.206C286.469 276.175 280.301 270.732 280.301 270.732L264.745 277.536L258.355 273.969L262.623 262.33Z" fill="white" stroke="#263238" stroke-linecap="round" stroke-linejoin="round"/>
<path d="M238.801 160.376C238.801 160.376 228.55 161.697 226.81 164.577C225.071 167.457 196.981 233.515 197.043 236.435C197.104 239.355 253.21 286.639 253.21 286.639L265.325 261.947L235.014 231.851L248.165 199.165" fill="white"/>
<path d="M238.801 160.376C238.801 160.376 228.55 161.697 226.81 164.577C225.071 167.457 196.981 233.515 197.043 236.435C197.104 239.355 253.21 286.639 253.21 286.639L265.325 261.947L235.014 231.851L248.165 199.165" stroke="#263238" stroke-linecap="round" stroke-linejoin="round"/>
<path d="M257.713 298.569L287.345 299.216L287.197 279.478" stroke="#263238" stroke-linecap="round" stroke-linejoin="round"/>
<path d="M264.782 277.536L256.948 280.667" stroke="#263238" stroke-linecap="round" stroke-linejoin="round"/>
<path d="M273.714 115.06C273.714 115.06 277.081 143.227 279.302 147.428C281.522 151.63 297.313 168.461 297.313 168.461C297.313 168.461 302.248 149.053 302.803 144.522C303.358 139.99 303.79 121.864 303.79 121.864L273.652 112.801L273.714 115.06Z" fill="white" stroke="#263238" stroke-linecap="round" stroke-linejoin="round"/>
<path d="M273.714 115.06C273.714 115.06 274.108 118.363 274.713 122.868C277.075 125.224 279.774 127.159 282.707 128.602C286.593 130.438 296.955 131.469 303.506 130.65C303.679 125.907 303.79 121.864 303.79 121.864L273.652 112.801L273.714 115.06Z" fill="#263238" stroke="#263238" stroke-linecap="round" stroke-linejoin="round"/>
<path d="M264.979 90.4733C264.979 90.4733 260.945 85.9417 258.947 91.1075C256.948 96.2732 261.414 104.055 263.795 104.385C265.208 104.582 266.643 104.47 268.014 104.055C268.014 104.055 269.704 111.506 271.259 113.765C274.318 117.908 278.238 121.229 282.707 123.463C288.209 126.105 306.627 127.043 308.959 123.463C311.29 119.882 311.155 100.805 311.118 99.1929C311.08 97.5811 310.821 74.5137 310.821 74.5137C310.821 74.5137 312.475 66.5075 310.229 60.9982C307.984 55.489 285.445 47.7866 279.783 50.9706C274.121 54.1546 267.595 59.7035 267.151 66.8245C266.706 73.9456 266.978 85.5982 266.978 85.5982L264.979 90.4733Z" fill="white" stroke="#263238" stroke-linecap="round" stroke-linejoin="round"/>
<path d="M298.288 80.4325C298.288 80.4325 302.05 98.9287 301.187 101.148C300.323 103.368 297.621 103.407 294.241 101.465C290.861 99.5232 292.625 96.9337 292.625 96.9337" stroke="#263238" stroke-linecap="round" stroke-linejoin="round"/>
<path d="M285.186 101.796C285.186 101.796 286.815 106.644 289.837 106.975C292.86 107.305 300.447 107.939 300.447 107.939" stroke="#263238" stroke-linecap="round" stroke-linejoin="round"/>
<path d="M274.392 81.0799L274.873 88.8483C274.873 88.8483 277.637 90.4733 283.977 90.4733C290.318 90.4733 292.403 88.8483 292.403 88.8483L292.23 81.0799C292.23 81.0799 283.028 75.2535 274.392 81.0799Z" stroke="#263238" stroke-linecap="round" stroke-linejoin="round"/>
<path d="M298.312 81.0798L300.607 89.1785C300.607 89.1785 301.544 90.4997 307.898 90.4997C314.251 90.4997 316.336 88.8747 316.336 88.8747L316.151 81.1063C316.151 81.1063 306.936 75.2535 298.312 81.0798Z" stroke="#263238" stroke-linecap="round" stroke-linejoin="round"/>
<path d="M292.268 81.0798H298.312" stroke="#263238" stroke-linecap="round" stroke-linejoin="round"/>
<path d="M274.429 81.0798L262.512 88.5312" stroke="#263238" stroke-linecap="round" stroke-linejoin="round"/>
<path d="M277.365 77.1956C277.365 77.1956 280.597 73.3114 287.925 76.5483" stroke="#263238" stroke-linecap="round" stroke-linejoin="round"/>
<path d="M299.423 77.1956C300.511 76.2606 301.824 75.6739 303.21 75.5033C304.596 75.3326 305.998 75.585 307.256 76.2312" stroke="#263238" stroke-linecap="round" stroke-linejoin="round"/>
<path d="M285.088 84.647C285.088 86.0738 284.607 87.2893 283.94 87.2893C283.274 87.2893 282.707 86.1267 282.707 84.647C282.707 83.1673 283.188 82.0047 283.866 82.0047C284.545 82.0047 285.063 83.2069 285.088 84.647Z" fill="#263238"/>
<path d="M304.431 84.3167C304.431 85.7435 303.95 86.959 303.284 86.959C302.618 86.959 302.05 85.7964 302.05 84.3167C302.05 82.837 302.531 81.6744 303.198 81.6744C303.864 81.6744 304.394 82.8898 304.431 84.3167Z" fill="#263238"/>
<path d="M283.731 54.3792C283.731 54.3792 286.642 61.2624 283.028 63.7726C281.912 64.4639 280.646 64.8278 279.357 64.8278C278.069 64.8278 276.803 64.4639 275.687 63.7726C276.648 65.1942 277.185 66.894 277.227 68.6484C277.269 70.4029 276.814 72.1298 275.922 73.6021C274.15 76.7638 272.083 79.7252 269.754 82.4406C269.754 82.4406 270.407 90.8035 269.05 91.7812C267.693 92.7589 263.992 91.2924 263.931 88.835C263.869 86.3777 262.389 81.463 262.327 79.0056C262.265 76.5482 261.204 70.1538 261.204 70.1538C261.204 70.1538 251.927 65.7279 256.85 60.3244C261.772 54.9209 272.221 50.495 272.221 50.495C272.221 50.495 272.455 40.6656 278.808 37.7194C285.162 34.7732 298.83 30.3473 298.941 35.262C299.115 37.7913 298.691 40.3268 297.708 42.6341C297.708 42.6341 309.168 42.1453 317.162 50.561C325.156 58.9768 324.885 66.7849 320.752 66.7849C316.62 66.7849 315.275 67.7625 315.275 67.7625C315.275 67.7625 323.183 72.6772 319.112 75.1346C315.041 77.592 310.846 74.6458 310.846 74.6458C310.846 74.6458 312.598 71.2108 307.441 66.7188C302.285 62.2269 283.731 54.3792 283.731 54.3792Z" fill="#263238" stroke="#263238" stroke-linecap="round" stroke-linejoin="round"/>
<path d="M127.194 551.28C162.847 551.28 191.75 544.301 191.75 535.691C191.75 527.081 162.847 520.101 127.194 520.101C91.5403 520.101 62.6374 527.081 62.6374 535.691C62.6374 544.301 91.5403 551.28 127.194 551.28Z" fill="#263238" stroke="#263238" stroke-linecap="round" stroke-linejoin="round"/>
<path d="M169.705 213.235V225.866L186.853 234.281C186.853 234.281 188.642 225.866 187.211 210.937L169.705 213.235Z" fill="#999999" stroke="#263238" stroke-linecap="round" stroke-linejoin="round"/>
<path d="M84.5962 516.323C80.6714 519.931 76.9631 523.801 73.4935 527.909C68.5589 533.868 67.5966 539.8 72.1858 542.64C76.7749 545.481 83.9794 544.741 91.8377 539.482C99.696 534.224 99.3753 532.11 103.964 530.367C108.554 528.623 111.502 525.082 111.502 519.48C111.502 513.878 94.7861 513.165 91.1839 512.874C87.5816 512.584 84.5962 516.323 84.5962 516.323Z" fill="white" stroke="#263238" stroke-linecap="round" stroke-linejoin="round"/>
<path d="M111.465 519.48C111.465 519.48 104.063 522.994 100.473 526.192C96.8833 529.389 89.7282 540.896 81.3641 540.896C77.1047 540.9 72.916 539.731 69.2004 537.501C69.2058 538.564 69.4836 539.606 70.0035 540.512C70.5233 541.418 71.2654 542.154 72.1488 542.64C76.7379 545.441 83.9424 544.741 91.8007 539.483C99.659 534.224 99.3383 532.11 103.927 530.367C108.517 528.623 111.465 525.095 111.465 519.48Z" stroke="#263238" stroke-linecap="round" stroke-linejoin="round"/>
<path d="M167.731 516.323C171.656 519.931 175.365 523.801 178.834 527.909C183.769 533.868 184.731 539.8 180.142 542.64C175.553 545.481 168.348 544.741 160.49 539.482C152.632 534.224 152.952 532.11 148.363 530.367C143.774 528.623 140.826 525.082 140.826 519.48C140.826 513.878 157.541 513.165 161.144 512.874C164.746 512.584 167.731 516.323 167.731 516.323Z" fill="white" stroke="#263238" stroke-linecap="round" stroke-linejoin="round"/>
<path d="M140.863 519.48C140.863 519.48 148.265 522.994 151.854 526.192C155.444 529.389 162.599 540.896 170.964 540.896C175.223 540.9 179.412 539.731 183.127 537.501C183.122 538.564 182.844 539.606 182.324 540.512C181.804 541.418 181.062 542.154 180.179 542.64C175.59 545.441 168.385 544.741 160.527 539.483C152.669 534.224 152.989 532.11 148.4 530.367C143.811 528.623 140.863 525.095 140.863 519.48Z" stroke="#263238" stroke-linecap="round" stroke-linejoin="round"/>
<path d="M75.0972 317.039C75.0972 317.039 77.0587 395.978 78.0456 407.565C79.0325 419.151 81.9439 445.456 81.9439 446.909C81.9439 448.362 83.5723 506.559 83.5723 506.559L80.6239 511.844L81.6108 519.216L94.7121 522.017C101.263 523.417 109.787 525.531 111.095 524.131C112.403 522.73 112.736 519.916 113.389 516.058C114.043 512.201 115.351 505.172 114.043 499.57C112.736 493.969 115.684 434.305 116.017 432.905C116.35 431.504 123.888 373.875 123.888 373.875C123.888 373.875 128.822 421.252 132.4 435.626C135.977 450 134.694 471.416 136.002 479.832C137.31 488.248 139.937 516.679 140.271 518.78C140.604 520.881 141.245 524.065 141.245 524.065C141.245 524.065 157.628 521.607 160.576 520.194C163.566 519.014 166.634 518.078 169.755 517.393C169.755 517.393 170.729 497.39 169.421 489.318C168.469 483.646 167.92 477.904 167.781 472.143C167.781 469.686 169.421 391.803 169.421 391.803L167.781 316.365C167.781 316.365 123.555 321.28 106.518 317.766C89.4815 314.251 75.4303 312.151 75.4303 312.151L75.0972 317.039Z" fill="#92E3A9" stroke="#263238" stroke-linecap="round" stroke-linejoin="round"/>
<path d="M106.543 317.739C89.5061 314.238 75.4303 312.151 75.4303 312.151L75.0972 317.052C75.0972 317.052 75.2082 321.584 75.3933 328.612C83.2022 330.951 99.0669 335.06 114.401 335.06C130.611 335.06 156.431 329.775 168.052 327.251L167.805 316.352C167.805 316.352 123.579 321.253 106.543 317.739Z" fill="#263238" stroke="#263238" stroke-linecap="round" stroke-linejoin="round"/>
<path d="M163.451 495.514C163.66 497.932 163.796 499.319 163.796 499.319" stroke="#263238" stroke-linecap="round" stroke-linejoin="round"/>
<path d="M158.43 335.562C158.43 335.562 159.663 403.363 159.663 428.954C159.663 446.658 161.662 473.53 162.895 488.406" stroke="#263238" stroke-linecap="round" stroke-linejoin="round"/>
<path d="M92.1215 331.73L95.1069 405.292" stroke="#263238" stroke-linecap="round" stroke-linejoin="round"/>
<path d="M94.5024 411.039V423.194" stroke="#263238" stroke-linecap="round" stroke-linejoin="round"/>
<path d="M110.034 131.733C108.421 131.742 106.833 132.163 105.402 132.96C103.971 133.757 102.738 134.908 101.806 136.318C99.7654 139.2 97.4951 141.888 95.0205 144.35L65.7215 161.195L68.5836 280.971L69.6568 321.927C69.6568 321.927 92.1585 329.96 113.599 329.96C135.04 329.96 173.27 320.712 173.27 320.712C173.27 320.712 170.063 161.142 171.136 161.142C172.209 161.142 150.053 140.532 140.048 135.115C130.044 129.698 110.034 131.733 110.034 131.733Z" fill="#92E3A9" stroke="#263238" stroke-linecap="round" stroke-linejoin="round"/>
<path d="M101.682 146.213C101.682 146.213 113.032 168.607 117.818 178.846C122.605 189.085 131.536 203.816 131.536 203.816L146.476 160.957" stroke="#263238" stroke-linecap="round" stroke-linejoin="round"/>
<path d="M110.071 288.251L109.491 270.376L75.7757 268.275C75.7757 268.275 76.1088 294.592 76.7626 296.019" stroke="#263238" stroke-linecap="round" stroke-linejoin="round"/>
<path d="M110.478 300.908L110.318 295.887" stroke="#263238" stroke-linecap="round" stroke-linejoin="round"/>
<path d="M150.448 298.093L149.461 268.632C149.461 268.632 161.255 269.675 171.087 262.66" stroke="#263238" stroke-linecap="round" stroke-linejoin="round"/>
<path d="M99.8934 198.425C100.93 201.926 104.088 203.987 106.938 203.01C109.787 202.032 111.231 198.399 110.182 194.898C109.133 191.397 105.988 189.336 103.138 190.313C100.288 191.291 98.8448 194.924 99.8934 198.425Z" stroke="#263238" stroke-linecap="round" stroke-linejoin="round"/>
<path d="M100.226 137.123C100.226 137.123 96.4392 152.713 105.05 195.03" stroke="#263238" stroke-width="2" stroke-linecap="round" stroke-linejoin="round"/>
<path d="M107.702 196.483C107.448 197.031 107.053 197.49 106.563 197.805C106.073 198.119 105.509 198.277 104.938 198.258C104.367 198.24 103.813 198.046 103.341 197.701C102.87 197.355 102.501 196.872 102.278 196.308C102.056 195.745 101.989 195.125 102.085 194.522C102.182 193.919 102.438 193.358 102.824 192.906C103.209 192.454 103.707 192.131 104.259 191.973C104.811 191.816 105.394 191.831 105.938 192.018C106.722 192.363 107.347 193.026 107.677 193.862C108.007 194.698 108.016 195.64 107.702 196.483V196.483Z" stroke="#263238" stroke-linecap="round" stroke-linejoin="round"/>
<path d="M169.705 158.896C169.705 158.896 175.059 163.111 175.417 164.643C175.775 166.176 193.996 212.852 193.996 212.852L167.559 217.027L167.916 189.468" fill="#92E3A9"/>
<path d="M169.705 158.896C169.705 158.896 175.059 163.111 175.417 164.643C175.775 166.176 193.996 212.852 193.996 212.852L167.559 217.027L167.916 189.468" stroke="#263238" stroke-linecap="round" stroke-linejoin="round"/>
<path d="M69.2991 159.662C69.2991 159.662 63.2172 160.429 61.7862 165.396C60.3552 170.364 50.0049 220.885 50.0049 220.885L87.8777 217.027L84.3002 179.136" fill="#92E3A9"/>
<path d="M69.2991 159.662C69.2991 159.662 63.2172 160.429 61.7862 165.396C60.3552 170.364 50.0049 220.885 50.0049 220.885L87.8777 217.027L84.3002 179.136" stroke="#263238" stroke-linecap="round" stroke-linejoin="round"/>
<path d="M142.454 134.745C142.454 134.745 151.842 140.479 152.767 154.748C153.693 169.016 152.767 172.636 152.767 172.636" stroke="#263238" stroke-width="2" stroke-linecap="round" stroke-linejoin="round"/>
<path d="M157.011 190.908C157.011 190.908 156.172 207.779 154.457 212.654C152.743 217.529 145.958 223.303 140.579 224.227" stroke="#263238" stroke-linecap="round" stroke-linejoin="round"/>
<path d="M144.86 189.085C144.86 189.085 144.107 208.545 144.033 212.165C143.959 215.785 147.364 222.087 152.249 228.125" stroke="#263238" stroke-linecap="round" stroke-linejoin="round"/>
<path d="M153.65 230.245L153.794 230.12C154.466 229.536 154.569 228.479 154.024 227.76L153.332 226.846C152.787 226.127 151.801 226.016 151.129 226.6L150.985 226.725C150.313 227.309 150.21 228.365 150.755 229.085L151.447 229.998C151.992 230.718 152.978 230.828 153.65 230.245Z" fill="#263238"/>
<path d="M138.647 224.844L138.682 225.039C138.843 225.949 139.663 226.548 140.513 226.375L141.592 226.156C142.442 225.984 143 225.106 142.839 224.195L142.805 224.001C142.644 223.09 141.824 222.492 140.974 222.664L139.895 222.883C139.045 223.056 138.486 223.934 138.647 224.844Z" fill="#263238"/>
<path d="M157.196 192.189L156.838 178.013C156.805 176.535 156.258 175.122 155.305 174.052C154.351 172.982 153.059 172.331 151.682 172.227V172.227C150.218 172.11 148.772 172.618 147.657 173.641C146.543 174.663 145.852 176.117 145.736 177.683L144.625 192.057" stroke="#263238" stroke-width="2" stroke-linecap="round" stroke-linejoin="round"/>
<path d="M187.926 224.716L179.402 222.801L149.387 217.45L107.295 208.862L97.3151 204.146C97.3151 204.146 87.8777 190.934 87.0635 189.613C86.2493 188.292 75.5783 192.903 75.9607 194.66C76.3432 196.417 77.6015 213.975 78.428 215.085C79.2546 216.195 88.4699 216.182 88.4699 216.182C88.4699 216.182 132.437 238.906 134.263 239.738C159.639 251.192 171.876 251.087 176.206 251.84C180.537 252.593 183.362 250.717 185.854 247.652C188.346 244.587 187.926 224.716 187.926 224.716Z" fill="#999999" stroke="#263238" stroke-linecap="round" stroke-linejoin="round"/>
<path d="M85.7805 189.428C85.7805 189.428 80.6609 189.653 73.074 195.135C70.249 197.183 68.7686 198.65 68.7686 199.535C68.9303 200.588 69.2077 201.617 69.5952 202.6C74.514 200.063 79.6653 198.08 84.9663 196.681" fill="#999999"/>
<path d="M85.7805 189.428C85.7805 189.428 80.6609 189.653 73.074 195.135C70.249 197.183 68.7686 198.65 68.7686 199.535C68.9303 200.588 69.2077 201.617 69.5952 202.6C74.514 200.063 79.6653 198.08 84.9663 196.681" stroke="#263238" stroke-linecap="round" stroke-linejoin="round"/>
<path d="M87.8284 203.485C87.8284 203.485 73.9006 207.211 71.643 207.66C69.3854 208.109 68.9783 205.678 68.9783 204.806C68.9783 203.934 69.5952 202.6 72.0501 201.292C74.5051 199.984 86.8538 196.457 86.8538 196.457" fill="#999999"/>
<path d="M87.8284 203.485C87.8284 203.485 73.9006 207.211 71.643 207.66C69.3854 208.109 68.9783 205.678 68.9783 204.806C68.9783 203.934 69.5952 202.6 72.0501 201.292C74.5051 199.984 86.8538 196.457 86.8538 196.457" stroke="#263238" stroke-linecap="round" stroke-linejoin="round"/>
<path d="M89.2717 210.289C89.2717 210.289 73.074 212.046 71.8404 210.95C71.4629 210.51 71.1766 209.989 71.0001 209.422C70.8237 208.855 70.7611 208.255 70.8165 207.66L85.3734 204.357" fill="#999999"/>
<path d="M89.2717 210.289C89.2717 210.289 73.074 212.046 71.8404 210.95C71.4629 210.51 71.1766 209.989 71.0001 209.422C70.8237 208.855 70.7611 208.255 70.8165 207.66L85.3734 204.357" stroke="#263238" stroke-linecap="round" stroke-linejoin="round"/>
<path d="M84.7566 211.161L72.2598 211.822C72.2598 211.822 72.8643 213.804 73.4935 214.015C76.454 214.798 79.4705 215.315 82.5114 215.561C84.5055 215.631 86.4925 215.852 88.4575 216.221" fill="#999999"/>
<path d="M84.7566 211.161L72.2598 211.822C72.2598 211.822 72.8643 213.804 73.4935 214.015C76.454 214.798 79.4705 215.315 82.5114 215.561C84.5055 215.631 86.4925 215.852 88.4575 216.221" stroke="#263238" stroke-linecap="round" stroke-linejoin="round"/>
<path d="M57.8632 220.119C57.8632 220.119 63.575 246.542 65.006 248.444C66.437 250.347 78.2306 248.444 90.0243 244.613C101.818 240.782 151.842 217.833 151.842 217.833L158.985 219.352C158.985 219.352 156.123 209.787 151.127 209.404C146.13 209.021 87.8777 217.027 87.8777 217.027L57.8632 220.119Z" fill="#999999" stroke="#263238" stroke-linecap="round" stroke-linejoin="round"/>
<path d="M107.85 114.888C107.85 114.888 107.85 115.456 107.85 116.421C107.961 121.454 108.418 137.44 109.615 141.298C111.046 145.883 130.34 184.54 131.82 181.475C133.3 178.41 142.183 136.701 142.183 136.701V120.252C142.183 120.252 137.532 124.453 128.958 124.453C120.384 124.453 107.85 114.888 107.85 114.888Z" fill="#999999" stroke="#263238" stroke-linecap="round" stroke-linejoin="round"/>
<path d="M136.471 137.559C138.472 136.251 140.384 134.794 142.195 133.2V120.252C142.195 120.252 137.544 124.453 128.97 124.453C120.397 124.453 107.85 114.888 107.85 114.888C107.85 114.888 107.85 115.456 107.85 116.421C107.85 118.191 107.974 121.322 108.122 124.81C108.46 125.391 108.84 125.943 109.257 126.462C111.724 129.514 123.542 137.176 126.404 137.943C129.266 138.709 133.251 139.462 136.471 137.559Z" fill="#263238" stroke="#263238" stroke-linecap="round" stroke-linejoin="round"/>
<path d="M150.769 92.6928C150.769 92.6928 156.481 89.2446 156.481 95.7579C156.481 102.271 151.127 109.921 151.127 109.921L150.769 92.6928Z" fill="#999999" stroke="#263238" stroke-linecap="round" stroke-linejoin="round"/>
<path d="M99.6714 93.076C99.6714 93.076 91.8007 90.7771 91.8007 98.4399C91.8007 106.103 98.9558 111.057 98.9558 111.057H103.89C103.89 111.057 106.752 118.72 109.257 121.772C111.761 124.823 123.542 132.486 126.404 133.252C129.266 134.019 133.189 134.785 136.409 132.869C140.454 130.169 144.182 126.957 147.512 123.304C148.943 121.402 151.447 108.388 151.447 108.388C151.447 108.388 152.163 85.0433 150.732 77.0106C149.301 68.978 140.011 56.3477 127.145 54.8152C114.278 53.2826 102.126 64.3804 100.35 73.1793C98.5734 81.9782 99.6714 93.076 99.6714 93.076Z" fill="#999999" stroke="#263238" stroke-linecap="round" stroke-linejoin="round"/>
<path d="M122.888 99.2061C122.888 99.2061 120.421 104.557 124.677 106.089C128.933 107.622 134.324 107.239 135.398 104.94C136.471 102.641 134.682 99.9724 134.682 99.9724" stroke="#263238" stroke-linecap="round" stroke-linejoin="round"/>
<path d="M118.608 108.771C118.608 108.771 127.539 116.804 139.691 109.154" stroke="#263238" stroke-linecap="round" stroke-linejoin="round"/>
<path d="M123.604 116.038C123.604 116.038 131.117 120.635 136.113 115.271" stroke="#263238" stroke-linecap="round" stroke-linejoin="round"/>
<path d="M119.323 94.6085C120.311 94.6085 121.112 93.2362 121.112 91.5434C121.112 89.8506 120.311 88.4783 119.323 88.4783C118.335 88.4783 117.534 89.8506 117.534 91.5434C117.534 93.2362 118.335 94.6085 119.323 94.6085Z" fill="#263238"/>
<path d="M138.617 91.1603C138.617 92.8514 137.816 94.2254 136.829 94.2254C135.842 94.2254 135.04 92.9042 135.04 91.1603C135.04 89.4164 135.842 88.1084 136.829 88.1084C137.816 88.1084 138.617 89.4692 138.617 91.1603Z" fill="#263238"/>
<path d="M114.315 87.3421C114.315 87.3421 116.103 84.277 122.95 85.4264" stroke="#263238" stroke-linecap="round" stroke-linejoin="round"/>
<path d="M133.967 85.8096C133.967 85.8096 137.186 80.4457 142.195 85.8096" stroke="#263238" stroke-linecap="round" stroke-linejoin="round"/>
<path d="M150.769 76.9842C150.305 74.7118 149.501 72.5347 148.388 70.537C147.972 72.6552 147.826 74.8241 147.956 76.9842C148.474 79.7851 150.312 83.6957 150.312 85.651C150.312 87.6064 150.041 95.4408 151.349 94.3311C151.478 94.1844 151.583 94.0145 151.657 93.829C151.739 88.1985 151.442 82.5691 150.769 76.9842Z" fill="#263238" stroke="#263238" stroke-linecap="round" stroke-linejoin="round"/>
<path d="M132.807 61.1303C135.101 61.0002 137.384 60.7045 139.641 60.2452C135.996 57.323 131.701 55.4738 127.182 54.8812C114.315 53.3487 102.163 64.4464 100.387 73.2454C98.6104 82.0443 99.6713 93.142 99.6713 93.142C99.6713 93.142 102.509 95.2559 103.557 93.0231C104.606 90.7904 103.557 87.144 104.606 83.2333C105.655 79.3227 107.209 77.3542 107.468 74.2759C107.727 71.1976 105.901 66.7321 106.95 64.2086C107.998 61.6852 114.524 56.9423 118.706 58.6201C123.206 60.4452 127.998 61.2983 132.807 61.1303Z" fill="#263238" stroke="#263238" stroke-linecap="round" stroke-linejoin="round"/>
</svg>
